<mxfile host="app.diagrams.net" agent="Mozilla/5.0 (Windows NT 10.0; Win64; x64) AppleWebKit/537.36 (KHTML, like Gecko) Chrome/129.0.0.0 Safari/537.36" version="24.7.17">
  <diagram name="CustomType = 1 (Обычные анкеты)" id="KaXX6VaNGYBECo3E85HH">
    <mxGraphModel dx="2025" dy="1258" grid="1" gridSize="10" guides="1" tooltips="1" connect="1" arrows="1" fold="1" page="1" pageScale="1" pageWidth="827" pageHeight="1169" math="0" shadow="0">
      <root>
        <mxCell id="0" />
        <mxCell id="1" parent="0" />
        <mxCell id="NdQBS5Wv4pO8QV5VnEYE-5" style="edgeStyle=orthogonalEdgeStyle;rounded=0;orthogonalLoop=1;jettySize=auto;html=1;entryX=0.5;entryY=1;entryDx=0;entryDy=0;" edge="1" parent="1" source="NdQBS5Wv4pO8QV5VnEYE-1" target="NdQBS5Wv4pO8QV5VnEYE-2">
          <mxGeometry relative="1" as="geometry" />
        </mxCell>
        <mxCell id="NdQBS5Wv4pO8QV5VnEYE-15" style="edgeStyle=orthogonalEdgeStyle;rounded=0;orthogonalLoop=1;jettySize=auto;html=1;entryX=0.5;entryY=0;entryDx=0;entryDy=0;" edge="1" parent="1" source="NdQBS5Wv4pO8QV5VnEYE-1" target="NdQBS5Wv4pO8QV5VnEYE-12">
          <mxGeometry relative="1" as="geometry" />
        </mxCell>
        <mxCell id="NdQBS5Wv4pO8QV5VnEYE-1" value="&lt;b&gt;&lt;u&gt;Questionnaire&lt;/u&gt;&lt;/b&gt;&lt;div&gt;&lt;br&gt;&lt;/div&gt;&lt;div&gt;&lt;b&gt;Id&lt;/b&gt;&lt;/div&gt;&lt;div&gt;CreatedOn&lt;br&gt;ModifiedOn&lt;/div&gt;&lt;div&gt;Name&lt;/div&gt;" style="rounded=1;whiteSpace=wrap;html=1;" vertex="1" parent="1">
          <mxGeometry x="364.5" y="500" width="151" height="130" as="geometry" />
        </mxCell>
        <mxCell id="NdQBS5Wv4pO8QV5VnEYE-8" style="edgeStyle=orthogonalEdgeStyle;rounded=0;orthogonalLoop=1;jettySize=auto;html=1;entryX=0.5;entryY=1;entryDx=0;entryDy=0;" edge="1" parent="1" source="NdQBS5Wv4pO8QV5VnEYE-2" target="NdQBS5Wv4pO8QV5VnEYE-7">
          <mxGeometry relative="1" as="geometry" />
        </mxCell>
        <mxCell id="NdQBS5Wv4pO8QV5VnEYE-11" style="edgeStyle=orthogonalEdgeStyle;rounded=0;orthogonalLoop=1;jettySize=auto;html=1;entryX=0.5;entryY=1;entryDx=0;entryDy=0;" edge="1" parent="1" source="NdQBS5Wv4pO8QV5VnEYE-2" target="NdQBS5Wv4pO8QV5VnEYE-10">
          <mxGeometry relative="1" as="geometry" />
        </mxCell>
        <mxCell id="NdQBS5Wv4pO8QV5VnEYE-2" value="&lt;div&gt;&lt;b&gt;&lt;u&gt;Question&lt;br&gt;&lt;/u&gt;&lt;/b&gt;&lt;br&gt;&lt;/div&gt;&lt;div&gt;&lt;b&gt;Id&lt;/b&gt;&lt;br&gt;Type&lt;/div&gt;&lt;div&gt;&lt;b&gt;QuestionnaireId&lt;/b&gt;&lt;br&gt;Order&lt;/div&gt;&lt;div&gt;CreatedOn&lt;br&gt;ModifiedOn&lt;br&gt;Name&lt;/div&gt;" style="rounded=1;whiteSpace=wrap;html=1;" vertex="1" parent="1">
          <mxGeometry x="360" y="290" width="160" height="150" as="geometry" />
        </mxCell>
        <mxCell id="NdQBS5Wv4pO8QV5VnEYE-6" value="&lt;b&gt;&lt;u&gt;QuestionnaireHeader&lt;/u&gt;&lt;/b&gt;&lt;br&gt;&lt;br&gt;&lt;b&gt;Id&lt;/b&gt;&lt;br&gt;CreatedOn&lt;br&gt;ModifiedOn&lt;br&gt;Name&lt;br&gt;Visible&lt;br&gt;Position" style="rounded=1;whiteSpace=wrap;html=1;" vertex="1" parent="1">
          <mxGeometry x="90" y="290" width="180" height="150" as="geometry" />
        </mxCell>
        <mxCell id="NdQBS5Wv4pO8QV5VnEYE-7" value="&lt;b&gt;&lt;u&gt;QuestionConfiguration&lt;/u&gt;&lt;/b&gt;&lt;br&gt;&lt;div&gt;&lt;br&gt;&lt;b&gt;Id&lt;/b&gt;&lt;/div&gt;&lt;div&gt;CreatedOn&lt;br&gt;ModifiedOn&lt;br&gt;&lt;b&gt;QuestionId&lt;/b&gt;&lt;br&gt;&lt;b&gt;QuestionnaireHeaderId&lt;/b&gt;&lt;br&gt;RowNumber&lt;/div&gt;" style="rounded=1;whiteSpace=wrap;html=1;" vertex="1" parent="1">
          <mxGeometry x="360" y="90" width="160" height="140" as="geometry" />
        </mxCell>
        <mxCell id="NdQBS5Wv4pO8QV5VnEYE-9" style="edgeStyle=orthogonalEdgeStyle;rounded=0;orthogonalLoop=1;jettySize=auto;html=1;entryX=-0.003;entryY=0.429;entryDx=0;entryDy=0;entryPerimeter=0;" edge="1" parent="1" source="NdQBS5Wv4pO8QV5VnEYE-6" target="NdQBS5Wv4pO8QV5VnEYE-7">
          <mxGeometry relative="1" as="geometry">
            <Array as="points">
              <mxPoint x="180" y="150" />
            </Array>
          </mxGeometry>
        </mxCell>
        <mxCell id="NdQBS5Wv4pO8QV5VnEYE-10" value="&lt;b&gt;&lt;u&gt;QuestionAnswer&lt;br&gt;&lt;/u&gt;&lt;/b&gt;&lt;br&gt;&lt;b&gt;Id&lt;/b&gt;&lt;div&gt;&lt;b&gt;QuestionId&lt;/b&gt;&lt;br&gt;Order&lt;br&gt;CreatedOn&lt;br&gt;ModifiedOn&lt;br&gt;Name&lt;/div&gt;" style="rounded=1;whiteSpace=wrap;html=1;" vertex="1" parent="1">
          <mxGeometry x="610" y="90" width="160" height="140" as="geometry" />
        </mxCell>
        <mxCell id="NdQBS5Wv4pO8QV5VnEYE-17" style="edgeStyle=orthogonalEdgeStyle;rounded=0;orthogonalLoop=1;jettySize=auto;html=1;entryX=0;entryY=0.5;entryDx=0;entryDy=0;" edge="1" parent="1" source="NdQBS5Wv4pO8QV5VnEYE-12" target="NdQBS5Wv4pO8QV5VnEYE-14">
          <mxGeometry relative="1" as="geometry" />
        </mxCell>
        <mxCell id="NdQBS5Wv4pO8QV5VnEYE-12" value="&lt;b&gt;&lt;u&gt;QuestionnaireToTaskType&lt;/u&gt;&lt;/b&gt;&lt;div&gt;&lt;br&gt;&lt;/div&gt;&lt;div&gt;&lt;b&gt;Id&lt;/b&gt;&lt;br&gt;CreatedOn&lt;br&gt;ModifiedOn&lt;br&gt;&lt;b&gt;QuestionnaireId&lt;/b&gt;&lt;br&gt;&lt;b&gt;TaskTypeId&lt;/b&gt;&lt;br&gt;Order&lt;/div&gt;" style="rounded=1;whiteSpace=wrap;html=1;" vertex="1" parent="1">
          <mxGeometry x="140" y="650" width="190" height="150" as="geometry" />
        </mxCell>
        <mxCell id="NdQBS5Wv4pO8QV5VnEYE-14" value="&lt;b&gt;&lt;u&gt;QuestionnaireToTaskTypeSpecialization&lt;/u&gt;&lt;/b&gt;&lt;br&gt;&lt;br&gt;&lt;b&gt;Id&lt;/b&gt;&lt;br&gt;&lt;b&gt;QuestionnaireId&lt;/b&gt;&lt;br&gt;&lt;b&gt;SpecializationId&lt;/b&gt;&lt;br&gt;&lt;b&gt;QuestionnaireToTaskType&lt;/b&gt;&lt;br&gt;CreatedOn&lt;br&gt;ModifiedOn" style="rounded=1;whiteSpace=wrap;html=1;" vertex="1" parent="1">
          <mxGeometry x="490" y="750" width="250" height="150" as="geometry" />
        </mxCell>
        <mxCell id="NdQBS5Wv4pO8QV5VnEYE-16" style="edgeStyle=orthogonalEdgeStyle;rounded=0;orthogonalLoop=1;jettySize=auto;html=1;entryX=0.56;entryY=0;entryDx=0;entryDy=0;entryPerimeter=0;" edge="1" parent="1" source="NdQBS5Wv4pO8QV5VnEYE-1" target="NdQBS5Wv4pO8QV5VnEYE-14">
          <mxGeometry relative="1" as="geometry">
            <Array as="points">
              <mxPoint x="630" y="565" />
            </Array>
          </mxGeometry>
        </mxCell>
        <mxCell id="NdQBS5Wv4pO8QV5VnEYE-19" style="edgeStyle=orthogonalEdgeStyle;rounded=0;orthogonalLoop=1;jettySize=auto;html=1;entryX=0.5;entryY=1;entryDx=0;entryDy=0;" edge="1" parent="1" source="NdQBS5Wv4pO8QV5VnEYE-18" target="NdQBS5Wv4pO8QV5VnEYE-12">
          <mxGeometry relative="1" as="geometry" />
        </mxCell>
        <mxCell id="NdQBS5Wv4pO8QV5VnEYE-18" value="&lt;b&gt;&lt;u&gt;TaskType&lt;/u&gt;&lt;/b&gt;&lt;br&gt;&lt;br&gt;&lt;b&gt;Id&lt;/b&gt;&lt;br&gt;CreatedOn&lt;br&gt;ModifiedOn&lt;br&gt;Name" style="rounded=1;whiteSpace=wrap;html=1;" vertex="1" parent="1">
          <mxGeometry x="155" y="970" width="160" height="120" as="geometry" />
        </mxCell>
        <mxCell id="NdQBS5Wv4pO8QV5VnEYE-21" style="edgeStyle=orthogonalEdgeStyle;rounded=0;orthogonalLoop=1;jettySize=auto;html=1;entryX=0.5;entryY=1;entryDx=0;entryDy=0;" edge="1" parent="1" source="NdQBS5Wv4pO8QV5VnEYE-20" target="NdQBS5Wv4pO8QV5VnEYE-14">
          <mxGeometry relative="1" as="geometry" />
        </mxCell>
        <mxCell id="NdQBS5Wv4pO8QV5VnEYE-20" value="&lt;b&gt;&lt;u&gt;Specialization&lt;/u&gt;&lt;/b&gt;&lt;br&gt;&lt;br&gt;&lt;b&gt;Id&lt;/b&gt;&lt;br&gt;CreatedOn&lt;br&gt;ModifiedOn&lt;br&gt;Name&lt;br&gt;TargetId&lt;br&gt;GroupName&lt;br&gt;ExternalId" style="rounded=1;whiteSpace=wrap;html=1;" vertex="1" parent="1">
          <mxGeometry x="515" y="970" width="200" height="150" as="geometry" />
        </mxCell>
      </root>
    </mxGraphModel>
  </diagram>
</mxfile>
